<?xml version="1.0" standalone="no"?>
<!DOCTYPE svg PUBLIC "-//W3C//DTD SVG 20010904//EN"
 "http://www.w3.org/TR/2001/REC-SVG-20010904/DTD/svg10.dtd">
<svg version="1.0" xmlns="http://www.w3.org/2000/svg"
 width="700.000000pt" height="700.000000pt" viewBox="0 0 700.000000 700.000000"
 preserveAspectRatio="xMidYMid meet">
<metadata>
Created by potrace 1.14, written by Peter Selinger 2001-2017
</metadata>
<g transform="translate(0.000000,700.000000) scale(0.100000,-0.100000)"
fill="#000000" stroke="none">
<path d="M818 6990 c-129 -22 -268 -78 -384 -155 -102 -69 -234 -207 -298
-313 -55 -93 -110 -244 -126 -347 -7 -48 -10 -885 -8 -2720 l3 -2650 27 -85
c59 -188 139 -321 270 -446 139 -134 296 -217 483 -255 86 -18 194 -19 2715
-19 2524 0 2628 1 2715 19 199 41 369 135 510 282 135 140 218 297 256 484 18
86 19 194 19 2715 0 2524 -1 2628 -19 2715 -42 203 -136 371 -289 516 -49 46
-125 106 -170 133 -90 54 -242 109 -342 125 -78 13 -5288 13 -5362 1z m3047
-924 c403 -60 765 -201 1090 -424 641 -438 1044 -1111 1126 -1879 17 -165 7
-524 -20 -678 -78 -448 -245 -829 -519 -1185 -85 -110 -333 -357 -443 -442
-360 -279 -746 -445 -1209 -524 -129 -22 -506 -30 -653 -15 -697 75 -1325 419
-1761 965 -296 371 -479 801 -548 1286 -20 146 -17 545 6 695 23 150 83 391
131 521 52 142 182 401 262 524 432 658 1126 1082 1913 1169 119 13 504 5 625
-13z"/>
<path d="M3310 5964 c-882 -80 -1644 -599 -2025 -1379 -175 -358 -249 -678
-250 -1080 0 -431 80 -766 274 -1140 379 -733 1084 -1220 1911 -1321 180 -22
502 -15 675 15 695 119 1278 497 1666 1080 199 299 322 616 385 991 25 149 30
486 10 650 -41 335 -144 652 -303 930 -385 676 -1035 1120 -1808 1236 -97 15
-444 26 -535 18z m437 -431 c190 -69 293 -159 428 -376 9 -15 16 -15 76 2 106
30 201 35 308 17 290 -50 513 -247 600 -530 39 -128 37 -308 -5 -428 l-13 -37
72 -42 c156 -92 287 -262 335 -436 94 -338 -59 -702 -359 -858 l-47 -24 20
-68 c38 -137 34 -296 -13 -437 -66 -198 -267 -399 -465 -465 -141 -47 -297
-51 -437 -12 l-68 19 -24 -47 c-36 -70 -58 -99 -126 -168 -232 -235 -582 -286
-884 -130 -100 52 -223 171 -284 274 l-42 72 -37 -13 c-71 -25 -185 -39 -273
-33 -465 33 -793 493 -668 936 17 61 17 67 2 76 -213 131 -319 254 -380 440
-38 116 -44 297 -14 415 51 204 194 389 364 471 26 13 47 26 47 30 0 3 -7 25
-15 48 -27 78 -38 203 -25 298 34 258 184 468 415 582 111 54 198 74 325 74
95 0 131 -5 245 -38 17 -5 25 3 43 41 81 167 264 310 463 364 62 17 97 20 214
16 125 -3 149 -7 222 -33z"/>
<path d="M3345 5434 c-175 -42 -319 -160 -400 -328 -56 -115 -65 -119 -164
-83 -100 37 -212 51 -300 38 -246 -38 -435 -198 -517 -436 -23 -68 -27 -96
-27 -185 0 -92 4 -116 32 -199 19 -55 30 -103 27 -116 -4 -17 -31 -35 -102
-70 -170 -82 -286 -226 -328 -405 -34 -143 -12 -324 56 -453 49 -95 164 -205
263 -252 129 -62 131 -67 91 -169 -36 -90 -50 -207 -37 -296 24 -151 77 -256
188 -366 167 -168 410 -225 625 -149 136 49 129 51 190 -74 77 -158 228 -281
398 -327 85 -22 234 -23 319 0 185 48 315 157 406 339 22 44 47 85 56 90 12 8
43 1 115 -24 91 -31 109 -33 214 -33 101 0 124 4 190 29 140 52 247 136 325
255 117 180 134 374 49 593 -24 62 -17 72 83 122 185 93 290 219 340 407 22
84 21 234 -1 318 -46 170 -169 321 -327 398 -125 61 -123 54 -74 190 110 310
-69 670 -388 782 -135 48 -273 47 -406 -1 -78 -29 -109 -33 -126 -19 -8 6 -33
50 -55 97 -51 105 -161 221 -257 271 -129 68 -316 90 -458 56z m195 -314 c16
-16 20 -33 20 -89 0 -61 -3 -72 -22 -85 -30 -21 -54 -20 -78 4 -16 16 -20 33
-20 85 0 70 20 105 60 105 11 0 29 -9 40 -20z m-831 -435 c88 -21 154 -59 211
-122 60 -65 95 -138 111 -228 19 -112 -3 -295 -40 -329 -22 -20 -156 -46 -238
-46 -225 0 -400 135 -444 341 -13 61 -7 255 10 311 14 44 31 55 114 73 84 18
198 18 276 0z m1863 4 c29 -6 63 -17 75 -25 45 -29 70 -264 39 -379 -65 -246
-291 -366 -582 -310 -43 8 -84 21 -92 28 -18 19 -40 108 -48 192 -20 235 107
433 315 491 58 16 223 17 293 3z m-1030 -16 c14 -12 18 -31 18 -81 0 -75 -16
-102 -61 -102 -40 0 -59 33 -59 100 0 34 6 64 16 78 18 26 60 29 86 5z m131
-723 c132 -50 246 -174 288 -311 17 -57 21 -89 17 -167 -3 -87 -7 -105 -41
-175 -49 -105 -129 -185 -234 -234 -70 -34 -88 -38 -175 -41 -121 -5 -208 19
-300 81 -122 83 -196 214 -205 363 -10 150 33 261 141 370 109 108 204 146
356 140 67 -2 112 -10 153 -26z m-1623 -410 c24 -24 25 -48 4 -78 -13 -19 -24
-22 -85 -22 -57 0 -73 4 -90 21 -15 15 -19 28 -14 47 9 40 32 52 102 52 50 0
67 -4 83 -20z m438 4 c26 -18 29 -60 5 -86 -12 -14 -31 -18 -81 -18 -75 0
-102 16 -102 61 0 40 33 59 100 59 34 0 64 -6 78 -16z m2191 -11 c23 -28 20
-59 -7 -80 -9 -8 -44 -13 -83 -13 -59 0 -70 3 -83 22 -21 30 -20 54 4 78 16
16 33 20 84 20 58 0 67 -3 85 -27z m441 7 c24 -24 26 -57 3 -82 -22 -24 -143
-26 -167 -2 -21 20 -20 63 1 86 24 27 135 26 163 -2z m-2263 -511 c120 -17
139 -28 158 -91 23 -75 30 -214 16 -289 -49 -247 -266 -388 -539 -350 -128 18
-148 29 -167 93 -23 76 -30 214 -16 290 27 138 114 252 236 309 95 45 184 56
312 38z m1560 -19 c128 -45 220 -138 264 -267 38 -112 27 -342 -18 -395 -40
-45 -282 -63 -392 -29 -219 68 -335 268 -302 524 17 127 29 153 83 168 122 33
269 33 365 -1z m-879 -516 c19 -13 22 -24 22 -83 0 -39 -5 -74 -12 -83 -22
-27 -53 -30 -81 -7 -24 18 -27 27 -27 85 0 51 4 68 20 84 24 24 48 25 78 4z
m6 -450 c23 -22 22 -141 -1 -166 -21 -24 -58 -23 -83 2 -26 26 -29 134 -3 162
20 22 66 24 87 2z"/>
<path d="M2477 4571 c-20 -4 -41 -11 -45 -15 -4 -4 -7 -60 -7 -124 0 -105 3
-123 26 -172 33 -69 79 -115 149 -149 48 -22 68 -26 160 -25 140 0 146 4 155
96 17 180 -59 326 -194 373 -53 19 -188 28 -244 16z"/>
<path d="M4305 4567 c-125 -42 -193 -124 -214 -258 -12 -74 0 -198 20 -210 8
-4 41 -11 75 -14 165 -18 308 51 365 177 21 46 24 68 24 170 0 82 -4 121 -13
130 -18 18 -206 22 -257 5z"/>
<path d="M3405 3847 c-109 -37 -187 -104 -231 -201 -72 -159 -19 -348 127
-445 181 -121 426 -57 521 137 30 61 33 75 33 162 0 84 -3 102 -28 152 -36 74
-102 139 -174 173 -68 33 -185 43 -248 22z"/>
<path d="M2709 2909 c-79 -6 -166 -45 -205 -92 -15 -18 -39 -57 -53 -87 -22
-47 -26 -69 -26 -150 0 -159 2 -162 156 -161 150 1 242 51 298 161 16 33 33
85 36 115 8 59 -1 172 -14 194 -11 17 -109 27 -192 20z"/>
<path d="M4167 2910 c-32 -4 -61 -11 -65 -15 -4 -3 -8 -55 -10 -113 -3 -89 0
-116 17 -163 28 -75 79 -132 149 -166 53 -26 66 -28 174 -28 81 0 121 4 130
13 17 17 26 122 16 200 -23 197 -182 302 -411 272z"/>
</g>
</svg>
